<?xml version="1.0" encoding="UTF-8" standalone="no"?>
<!-- Created with Inkscape (http://www.inkscape.org/) -->

<svg
   width="210mm"
   height="297mm"
   viewBox="0 0 210 297"
   version="1.1"
   id="svg1"
   inkscape:version="1.4.2 (ebf0e940d0, 2025-05-08)"
   sodipodi:docname="navrh.svg"
   xmlns:inkscape="http://www.inkscape.org/namespaces/inkscape"
   xmlns:sodipodi="http://sodipodi.sourceforge.net/DTD/sodipodi-0.dtd"
   xmlns="http://www.w3.org/2000/svg"
   xmlns:svg="http://www.w3.org/2000/svg">
  <sodipodi:namedview
     id="namedview1"
     pagecolor="#ffffff"
     bordercolor="#000000"
     borderopacity="0.25"
     inkscape:showpageshadow="2"
     inkscape:pageopacity="0.0"
     inkscape:pagecheckerboard="0"
     inkscape:deskcolor="#d1d1d1"
     inkscape:document-units="mm"
     inkscape:zoom="1.0633188"
     inkscape:cx="380.41272"
     inkscape:cy="642.32853"
     inkscape:window-width="1920"
     inkscape:window-height="1052"
     inkscape:window-x="0"
     inkscape:window-y="0"
     inkscape:window-maximized="1"
     inkscape:current-layer="layer1" />
  <defs
     id="defs1" />
  <g
     inkscape:label="Layer 1"
     inkscape:groupmode="layer"
     id="layer1">
    <rect
       style="fill:#265694;fill-opacity:1;stroke-width:1;stroke-linecap:round;stroke-linejoin:round"
       id="rect1"
       width="151.785"
       height="103.01472"
       x="13.685532"
       y="117.69558"
       inkscape:export-filename="rect1.png"
       inkscape:export-xdpi="167.34195"
       inkscape:export-ydpi="167.34195" />
    <rect
       style="fill:#acacac;fill-opacity:1;stroke-width:1;stroke-linecap:round;stroke-linejoin:round"
       id="rect2"
       width="36.826557"
       height="103.01472"
       x="128.644"
       y="117.69558" />
    <rect
       style="fill:#474747;fill-opacity:1;stroke-width:0.591194;stroke-linecap:round;stroke-linejoin:round"
       id="rect4"
       width="151.785"
       height="12.690207"
       x="13.685532"
       y="208.0201" />
    <rect
       style="fill:#948526;fill-opacity:1;stroke-width:1;stroke-linecap:round;stroke-linejoin:round"
       id="rect5"
       width="36.826523"
       height="33.342945"
       x="128.644"
       y="174.67714" />
    <path
       style="fill:#000000;fill-opacity:0;stroke-width:1;stroke-linecap:round;stroke-linejoin:round;stroke:#98f2f5;stroke-opacity:1"
       d="m 93.310447,169.07853 c 0.165886,0.0415 0.456184,0.2903 0.497655,0.12441 0.04147,-0.16588 -0.618564,-0.24532 -0.497655,-0.12441 0.276648,0.27665 0.682318,0.38733 0.995312,0.62207 0.06205,0.0465 0.09085,0.39695 0.124412,0.49765 0.300395,0.90119 -0.03587,-0.19615 0.248828,0.37325 0.05564,0.11127 -0.05564,0.26196 0,0.37324 0.01855,0.0371 0.09509,-0.0293 0.124415,0 0.03293,0.0329 0,0.32201 0,0.37324 0,0.49766 -0.04147,-0.20736 0.124412,0.12441 0.126408,0.25282 -0.20679,0.82886 -0.37324,0.99532 -0.02933,0.0293 -0.09509,-0.0293 -0.124415,0 -0.0572,0.0572 -0.199905,0.39981 -0.248827,0.49765 -0.03709,0.0742 0.05865,0.19018 0,0.24883 -0.02932,0.0293 -0.09509,-0.0293 -0.124415,0 -0.100118,0.10012 0.112268,0.21239 0.124415,0.24883 0.106429,0.31928 0.02048,0.68351 0.124415,0.99531 0.115515,0.34654 0.216522,0.18902 0,0.62207 -0.01855,0.0371 0.02932,0.0951 0,0.12441 -0.02933,0.0293 -0.09509,-0.0293 -0.124415,0 -0.05865,0.0587 0.03709,0.17464 0,0.24883 -0.09489,0.18979 -0.280466,0.3121 -0.373242,0.49765 -0.164682,0.32937 0.05877,1.01597 0,1.36856 -0.08086,0.48517 -0.446575,0.8054 -0.62207,1.24414 -0.407787,1.01946 0.328951,1.96325 0.124415,2.98593 -0.110498,0.55248 -0.828411,0.7844 -0.995312,1.36855 -0.117359,0.41076 0.210679,1.44486 0.124415,1.61739 -0.189704,0.3794 -0.09863,-0.22755 -0.248828,0.37324 -0.122581,0.49032 -0.173003,1.06009 -0.497657,1.49297 -0.1612,0.21493 -0.349155,0.39931 -0.497655,0.62206 -0.211722,0.31759 -0.26693,0.68768 -0.497655,0.99532 -0.206478,0.2753 -0.525102,0.40068 -0.746485,0.62207 -0.270697,0.27069 -0.285183,0.6766 -0.497654,0.99531 -0.157494,0.23624 -0.399336,0.34916 -0.62207,0.49765 -0.16496,0.10998 -0.218673,0.34309 -0.373243,0.49766 -0.342323,0.34232 -0.844063,0.47976 -1.244139,0.74648 -0.188235,0.12549 -0.318204,0.36307 -0.497655,0.49766 -0.175276,0.13146 -0.576495,0.22994 -0.746485,0.24883 -0.206086,0.0229 -0.41543,-0.0172 -0.62207,0 -0.03296,0.003 -1.518504,0.24059 -1.617379,0.24882 -0.24797,0.0207 -0.503581,-0.054 -0.746485,0 -0.145965,0.0324 -0.23441,0.1933 -0.373242,0.24883 -0.115515,0.0462 -0.261961,-0.0556 -0.37324,0 -0.547256,0.27363 -0.968005,0.63826 -1.617382,0.74648 -0.09792,0.0163 -1.210201,0.0905 -1.24414,0.12442 -0.02932,0.0293 0.02932,0.0951 0,0.12441 -0.02932,0.0293 -0.08732,-0.0185 -0.124415,0 -0.05246,0.0262 -0.08294,0.083 -0.124412,0.12442 -0.124415,0.0829 -0.235805,0.18992 -0.373242,0.24882 -0.945756,0.40533 -2.088645,0.70062 -3.110349,0.8709 -0.48037,0.0801 -0.317733,-0.023 -0.62207,-0.12441 -0.277315,-0.0924 -0.827627,-0.0417 -1.119725,0 -1.023413,0.1462 -2.178457,0.5845 -3.234761,0.37324 -0.886241,-0.17725 0.211349,-0.0942 -0.870897,-0.24883 -0.202634,-0.0289 -0.672513,0.0992 -0.870898,0 -0.08294,-0.0415 -0.04147,-0.20735 -0.124415,-0.24883 -0.07419,-0.0371 -0.168362,0.0201 -0.248827,0 -0.08996,-0.0225 -0.157895,-0.10622 -0.248827,-0.12441 -0.433928,-0.0868 -1.083773,-0.012 -1.492967,0.12441 -0.178774,0.0596 -0.40685,0.21809 -0.62207,0.24883 -0.45026,0.0643 -2.076355,0.10298 -2.488279,0 -0.498346,-0.12458 0.119261,-0.0864 -0.124415,-0.24883 -0.355772,-0.23718 -1.092997,-0.3117 -1.492967,-0.37324 -0.930977,-0.14323 -1.809647,-0.0471 -2.737107,-0.12441 -0.210733,-0.0176 -0.412732,-0.0945 -0.62207,-0.12442 -0.123163,-0.0176 -0.285266,0.088 -0.37324,0 -0.02933,-0.0293 0.03709,-0.10586 0,-0.12441 -0.07419,-0.0371 -0.167015,0.0136 -0.24883,0 -0.861335,-0.14356 -1.764305,-0.28556 -2.612691,-0.49766 -0.254455,-0.0636 -0.528246,-0.10333 -0.746482,-0.24882 -0.121576,-0.0811 0.239998,-1.16414 -0.373243,-1.36856 -0.722852,-0.24095 -1.500357,-0.21486 -2.239452,-0.37324 -0.295214,-0.0633 -0.574844,-0.18961 -0.870897,-0.24883 -0.162663,-0.0325 -0.349282,0.0742 -0.497655,0 -0.318156,-0.15907 -0.03719,-0.85807 -0.124415,-1.11972 -0.220271,-0.66081 -1.041341,-1.13341 -1.244139,-1.7418 -0.102854,-0.30856 -0.048,-0.71808 -0.248828,-1.11972 -0.239276,-0.47855 -0.761629,-0.94663 -0.870897,-1.49297 -0.119203,-0.59601 -0.0049,-1.26868 -0.124415,-1.86621 -0.143415,-0.71707 -0.90107,-0.90107 -1.368552,-1.36855 -0.146624,-0.14662 -0.226618,-0.35103 -0.373242,-0.49766 -0.10573,-0.10573 -0.26751,-0.14309 -0.373243,-0.24882 -0.314256,-0.31426 -0.04781,-0.14343 -0.124412,-0.37325 -0.165793,-0.49737 -0.416745,-0.91974 -0.870897,-1.24413 -0.916586,-0.65471 -2.386952,-1.12871 -2.115037,-2.48828 0.116253,-0.58126 0.275778,-1.15702 0.373242,-1.7418 0.02045,-0.12272 -0.03017,-0.25254 0,-0.37324 0.06142,-0.24568 0.522047,-0.81966 0.622068,-1.11973 0.05246,-0.15737 -0.05246,-0.34028 0,-0.49765 0.07963,-0.23888 0.590462,-1.16053 0.746484,-1.36855 0.34716,-0.46288 0.193194,-0.0131 0.497655,-0.62207 0.271516,-0.54303 0.125717,-1.43402 0.24883,-1.7418 0.150151,-0.37538 0.427106,-0.57201 0.497655,-0.99531 0.05447,-0.32684 -0.106418,-0.80047 0,-1.11973 0.01855,-0.0556 0.08294,-0.0829 0.124412,-0.12441 0.04147,-0.0829 0.09509,-0.16085 0.124415,-0.24883 0.07661,-0.22982 -0.189843,-0.059 0.124415,-0.37324 0.231392,-0.23139 0.592535,-0.4365 0.870898,-0.62207 0.24647,0.0124 0.05884,-0.18326 0.124412,-0.24883 0.160025,-0.16002 0.527825,-0.10305 0.746485,-0.24882 0.223776,-0.14919 0.198522,-0.44736 0.373242,-0.62207 0.02932,-0.0293 0.09509,0.0293 0.124413,0 0.131143,-0.13115 0.137548,-0.34929 0.248827,-0.49766 0.245269,-0.32702 1.016222,-1.19239 1.368555,-1.36855 0.266141,-0.13308 0.462682,-0.27864 0.746482,-0.37325 0.07037,-0.0234 0.323273,0.05 0.373242,0 0.02933,-0.0293 -0.02932,-0.0951 0,-0.12441 0.09237,-0.0924 0.878441,0 0.995312,0 0.417735,0 0.778135,0.0464 1.119725,-0.12441 0.398687,-0.19935 1.009579,0.189 1.368555,0.24882 0.51876,0.0865 0.996669,0.0834 1.492967,0.24883 0.997077,0.33236 2.246373,0.3767 3.234761,0.8709 0.177199,0.0886 0.04309,0.64792 0.62207,0.99531 1.048541,0.62912 2.298467,1.08638 3.483589,1.36856 0.451056,0.10739 0.918733,0.13637 1.368554,0.24882 0.504436,0.12611 1.61738,0.55802 1.61738,0.74648 0,0.53551 -1.073875,1.02146 -1.244137,1.61739 -0.09115,0.319 0.08047,0.67344 0,0.99531 -0.04498,0.17993 -0.183709,0.324 -0.24883,0.49765 -0.140476,0.3746 -0.277144,0.85976 -0.37324,1.24414 -0.203425,0.8137 1.21426,1.46799 1.368552,2.23945 0.182038,0.9102 -0.555374,1.57762 -0.373243,2.48828 0.126416,0.63208 0.363718,0.66284 0.62207,1.24414 0.06945,0.15625 0.04794,0.34472 0.124415,0.49766 0.05246,0.10491 0.178448,0.15499 0.248828,0.24883 0.234852,0.31313 0.160073,0.79957 0,1.11972 -0.124415,0.24883 -0.176525,0.54977 -0.373243,0.74648 -0.347022,0.34703 -0.766381,0.64197 -1.119724,0.99532 -0.18777,0.18776 -0.309886,0.4343 -0.497655,0.62207 -0.371946,0.37194 -0.898385,0.46534 -1.368555,0.62206 -0.901181,0.3004 0.196152,-0.0359 -0.373242,0.24883 -0.341892,0.17095 -3.500091,-0.10459 -3.856831,-0.12441 -0.610889,-0.0339 -2.058747,0.12047 -2.612692,-0.24883 -0.0488,-0.0325 0.09188,-0.0756 0.124412,-0.12441 0.08903,-0.13354 0.244713,-0.39977 0,-0.49766 -0.781534,-0.31261 -1.685829,-0.33716 -2.488276,-0.49765 -0.497107,-0.0994 -1.638213,-0.76732 -1.990625,-1.11973 -0.31174,-0.31174 -0.5588,-0.80763 -0.870897,-1.11972 -0.02932,-0.0293 -0.105868,0.0371 -0.124412,0 -0.0371,-0.0742 0.02011,-0.16837 0,-0.24883 -0.08403,-0.33611 -0.202959,-0.62835 -0.24883,-0.99531 -0.02058,-0.16461 0.05246,-0.34029 0,-0.49766 -0.03709,-0.11128 -0.196369,-0.14391 -0.248828,-0.24883 -0.120914,-0.24182 0.06102,-0.53992 -0.248827,-0.74648 -0.185822,-0.12388 -0.422317,-0.14895 -0.62207,-0.24883 -0.299053,-0.14953 -0.567319,-0.35754 -0.870897,-0.49766 -0.238146,-0.10991 -0.536654,-0.0915 -0.746485,-0.24882 -0.07418,-0.0556 0.158867,-0.10193 0.24883,-0.12442 0.244727,-0.0612 0.499121,-0.0749 0.746482,-0.12441 0.742503,-0.1485 3.264821,-0.90847 3.732419,-1.49297 0.05181,-0.0648 0,-0.16588 0,-0.24882 0,-0.6868 -0.361299,-1.28844 -0.746485,-1.86621 -0.165883,-0.24883 -0.403084,-0.46278 -0.497654,-0.74649 -0.03934,-0.11803 0.02045,-0.25052 0,-0.37324 -0.02156,-0.12936 -0.124415,-0.2421 -0.124415,-0.37324 0,-0.0686 0.488746,-0.73757 0.497657,-0.74649 0.671703,-0.6717 1.769121,-0.66 2.612692,-0.87089 0.08996,-0.0225 0.156096,-0.12442 0.248827,-0.12442 0.185465,0 0.314714,0.21834 0.497657,0.24883 0.375685,0.0626 1.006229,0.004 1.368552,0.12441 0.279326,0.0931 0.338143,0.23128 0.62207,0.37325 0.117298,0.0587 0.260787,0.0569 0.373243,0.12441 0.555482,0.33329 0.18542,0.46475 0.373239,0.74648 0.218377,0.32757 1.481622,0.45725 1.86621,0.62207 0.6902,0.2958 3.086068,2.32443 2.861521,3.11035 -0.212714,0.7445 -0.296074,0.3197 -0.746484,0.99531 -0.123881,0.18582 -0.158123,0.41799 -0.248828,0.62207 -0.203464,0.4578 -0.263726,0.43284 -0.373242,0.8709 -0.03524,0.14095 0.267792,0.35428 0.124415,0.49766 -0.365787,0.36578 -3.449807,1.82089 -3.856831,1.61738 -0.221195,-0.1106 -0.483952,-0.86176 -0.870898,-1.11973 -0.334311,-0.22287 -0.642397,-0.2556 -0.995312,-0.37324 -0.07869,-0.0262 -0.174641,0.0371 -0.248827,0 -0.05314,-0.0266 -0.939073,-1.25607 -0.995312,-1.36855 -0.03061,-0.0612 -0.124415,-1.65745 -0.124415,-1.86621 0,-0.16945 0.06061,-0.68908 0,-0.8709 -0.01214,-0.0364 -0.224534,-0.14871 -0.124413,-0.24883 0.157478,-0.15747 2.687738,-0.69645 2.985934,-0.49765 0.284557,0.1897 0.479023,0.53251 0.746482,0.74648 0.10785,0.0863 0.688118,0.32255 0.746485,0.49766 0.188116,0.56435 -0.347689,1.54407 -0.124415,1.99062 0.01855,0.0371 0.08732,-0.0186 0.124415,0 0.512231,0.25611 0.865579,0.50297 0.373243,0.99531 -0.02933,0.0293 -0.09509,-0.0293 -0.124415,0 -0.139481,0.13948 0.124454,0.19908 -0.373243,0 -0.514831,-0.20593 -0.304527,-0.0334 -0.870897,-0.37324 -0.100581,-0.0604 -0.143912,-0.19637 -0.248827,-0.24883 -0.03709,-0.0185 -0.09509,0.0293 -0.124413,0 -0.240482,-0.24048 -0.168891,-2.15951 0.248828,-1.74179 0.0443,0.0443 0.120036,0.36886 0.124412,0.37324 0.02933,0.0293 0.09509,-0.0293 0.124415,0 0.190669,0.19067 -0.373242,0.26117 -0.373242,0.37324 0,0.0471 0.426693,0.0889 0.497654,0.12441 0.126762,0.0634 0.272304,0.27231 0.373243,0.37324"
       id="path5" />
    <path
       style="fill:#000000;fill-opacity:0;stroke:#98f2f5;stroke-width:1;stroke-linecap:round;stroke-linejoin:round;stroke-opacity:1"
       d="m 46.281982,159.001 c -0.535858,-0.17703 -2.707124,0.4632 -2.985934,-0.37324 -0.07383,-0.22148 -0.05059,-0.525 -0.124415,-0.74648 -0.01855,-0.0556 -0.105867,-0.0688 -0.124415,-0.12442 -0.09965,-0.29894 -0.0045,-0.69556 -0.124412,-0.99531 -0.132453,-0.33113 -0.390618,-0.67419 -0.497657,-0.99531 -0.228077,-0.68423 0.154799,-1.45682 0.24883,-2.11504 0.111236,-0.77866 0,-1.69619 0,-2.48828 0,-0.56861 -0.118947,-0.7246 -0.24883,-1.24414 -0.02627,-0.10505 0.05438,-0.38889 0,-0.49765 -0.1982,-0.3964 -0.202687,-1.14774 -0.124413,-1.61738 0.08494,-0.50967 0.271481,-0.98417 0.373243,-1.49297 0.01627,-0.0813 0,-0.16589 0,-0.24883 0,-0.12441 -0.0244,-0.25124 0,-0.37324 0.01818,-0.0909 0.101922,-0.15886 0.124412,-0.24883 0.04023,-0.16093 -0.05246,-0.34028 0,-0.49765 0.01855,-0.0556 0.105868,-0.0688 0.124415,-0.12442 0.06074,-0.1822 -0.04662,-0.43557 0,-0.62207 0.131519,-0.52607 0.61109,-0.95139 0.746482,-1.49296 0.07804,-0.31218 -0.06317,-0.67946 0,-0.99532 0.0552,-0.276 0.160068,-0.60461 0.248828,-0.87089 0.293282,-0.87985 1.085479,-1.42448 1.492969,-2.23945 0.232886,-0.46578 0.425146,-1.06452 0.746482,-1.49297 0.140759,-0.18768 0.351105,-0.31447 0.497655,-0.49766 0.377214,-0.47151 0.601295,-1.03328 0.995312,-1.49296 0.451131,-0.52632 1.076955,-0.93829 1.492967,-1.49297 0.464582,-0.61944 0.967219,-1.05953 1.617382,-1.49297 0.422934,-0.28195 0.06672,-0.0167 0.497655,-0.12441 0.262028,-0.0655 0.48985,-0.2877 0.746485,-0.37324 0.149296,-0.0498 0.348358,0.0498 0.497655,0 0.711179,-0.23706 -0.752121,-0.0238 0.373242,-0.24883 0.422288,-0.0845 0.816298,-0.10621 1.24414,-0.24883 0.470424,-0.15681 1.04177,-0.30428 1.492967,-0.49766 0.137435,-0.0589 0.229468,-0.20774 0.373242,-0.24882 0.159502,-0.0456 0.33305,0.0206 0.497655,0 0.379394,-0.0474 0.746482,-0.16589 1.119725,-0.24883 1.501965,-0.33377 2.970723,-0.77986 4.478901,-0.99531 0.870421,-0.12435 1.85851,0 2.737106,0 0.571971,0 1.29186,-0.10443 1.86621,0 2.186667,0.39757 -0.252762,0.14774 2.115036,0.37324 2.16139,0.20585 4.31351,0.3733 6.469526,0.62207 1.561563,0.18018 4.303196,0.28539 5.72304,0.99531 0.289791,0.1449 0.562264,0.46775 0.870898,0.62207 1.005972,0.50299 2.066306,1.04552 3.110346,1.49297 1.070912,0.45896 4.714981,1.59188 5.225386,2.61269 0.135022,0.27004 0.142819,0.58821 0.248827,0.8709 0.07842,0.20911 0.148953,0.42231 0.24883,0.62207 0.06687,0.13374 0.207748,0.22947 0.248828,0.37324 0.04557,0.1595 -0.02347,0.33344 0,0.49765 0.01855,0.12983 0.08294,0.24883 0.124412,0.37325 0.04147,0.16588 0.103206,0.32798 0.124415,0.49765 0.04115,0.32921 -0.03664,0.66557 0,0.99531 0.0618,0.55618 0.278048,1.22938 0.497655,1.7418 0.184692,0.43094 0.599493,0.80317 0.746485,1.24414 0.167245,0.50173 0.14369,1.09169 0.248827,1.61738 0.04209,0.21046 0.724435,1.07563 0.870897,1.36855 0.239692,0.47938 0.576162,0.982 0.746485,1.49297 0.05407,0.16222 0.05706,0.34049 0.124412,0.49765 0.117804,0.27488 0.392653,0.46647 0.497655,0.74649 0.15203,0.4054 0.236326,0.83338 0.373243,1.24414 0.09394,0.28183 0.796954,2.63617 0.746484,2.7371 -0.125563,0.25113 -0.273221,0.57084 -0.373242,0.8709 -0.08709,0.26127 0.08709,0.60963 0,0.8709 -0.08726,0.26178 -0.425746,0.45884 -0.497655,0.74648 -0.117324,0.4693 0.08718,0.94538 -0.124415,1.36856 -0.08294,0.16588 0.08294,0.45618 0,0.62207 -0.230214,0.46042 -3.168406,0.93172 -3.732419,1.11972 -0.556815,0.18561 -1.061873,0.56132 -1.617379,0.74649 -0.453215,0.15107 -0.683517,0.0517 -1.119725,0.12441 -0.25872,0.0431 -0.489291,0.19739 -0.746484,0.24883 -0.08133,0.0163 -0.174641,-0.0371 -0.248828,0 -0.104915,0.0524 -0.137549,0.21173 -0.248827,0.24883 -0.157374,0.0524 -0.333052,-0.0206 -0.497658,0 -0.169669,0.0212 -0.331769,0.0829 -0.497654,0.12441 -0.207357,0.0415 -0.411901,0.10106 -0.62207,0.12441 -0.56311,0.0626 -1.175504,0 -1.741795,0 -0.254619,0 -1.265073,0.11395 -1.492967,0 -1.272759,-0.63638 -2.359088,-1.58867 -3.483591,-2.48828 -0.78178,-0.62542 -1.133785,-1.59032 -1.492967,-2.48828 -0.128368,-0.32092 -0.430178,-0.65792 -0.497655,-0.99531 -0.02439,-0.12199 0.03934,-0.25521 0,-0.37324 -0.04728,-0.14185 -0.201543,-0.23139 -0.248827,-0.37324 -0.03934,-0.11803 0.02045,-0.25052 0,-0.37324 -0.04312,-0.25872 -0.19739,-0.48929 -0.24883,-0.74648 -0.08828,-0.44139 -0.07658,-1.53116 0,-1.99063 -0.04321,-0.25314 0.205031,-0.40307 0.24883,-0.62207 0.02439,-0.122 -0.02439,-0.25124 0,-0.37324 0.07797,-0.38987 0.533625,-1.14371 0.870897,-1.36855 0.482851,-0.3219 1.09184,-0.3885 1.617379,-0.62207 0.427519,-0.19001 0.841547,-0.42078 1.24414,-0.62207 0.07419,-0.0371 0.170143,0.0262 0.248827,0 1.015495,-0.3385 2.523808,-0.12442 3.608007,-0.12442 0.266816,0 1.114597,0.003 1.368552,-0.12441 0.104915,-0.0525 0.143912,-0.19637 0.248827,-0.24883 0.07915,-0.0396 0.771007,-0.0499 0.870897,0 0.104916,0.0525 0.165886,0.16589 0.248828,0.24883 0.124415,0.0829 0.236603,0.1881 0.373242,0.24883 0.239681,0.10652 0.505405,0.1455 0.746485,0.24883 0.34094,0.14611 0.647996,0.36741 0.99531,0.49765 0.236318,0.0886 1.813687,0.39261 1.990624,0.74648 0.357137,0.71428 -0.373242,1.26744 -0.373242,1.99063 0,0.31999 0.192513,1.06734 0.373242,1.36855 0.176234,0.29372 0.343768,0.24231 0.248827,0.62207 -0.07893,0.31573 -0.358174,0.59193 -0.497654,0.8709 -0.375603,0.7512 -0.778981,2.3376 -1.741797,2.61269 -0.31659,0.0904 -1.877997,0.14022 -2.115037,0.12441 -0.920144,-0.0613 -1.711849,-0.50946 -2.612692,-0.62207 -0.246906,-0.0309 -0.523925,0.11129 -0.746482,0 -0.0371,-0.0185 0.02932,-0.0951 0,-0.12441 -0.257418,-0.25742 0.01005,0.39337 -0.24883,-0.12441 -0.185648,-0.3713 -0.225213,-0.65476 -0.497655,-0.99531 -0.226721,-0.28341 -0.93359,-0.77638 -0.746482,-1.24414 0.06888,-0.1722 0.130096,-0.35518 0.248827,-0.49766 0.152334,-0.1828 1.570279,-0.84735 1.86621,-0.99531 0.225644,-0.11282 0.363273,0.15924 0.497655,0.24883 0.09082,0.0606 0.501187,0.2186 0.622069,0.24883 0.01601,0.004 0.460484,-0.0372 0.497655,0 0.08442,0.0844 -0.05693,0.38379 0,0.49765 0.08332,0.16663 0.296807,0.17239 0.373243,0.24883 0.02932,0.0293 -0.01855,0.0873 0,0.12441 0.07869,0.15737 0.267673,0.23249 0.373242,0.37324 0.111279,0.14838 0.117684,0.36652 0.248827,0.49766 0.07435,0.0743 0.248828,-0.13448 0.248828,0.12441 0,0.0643 -0.226722,0.30692 -0.248828,0.37325 -0.02622,0.0787 0.03709,0.17464 0,0.24882 -0.01855,0.0371 -0.09509,-0.0293 -0.124415,0 -0.291237,0.29124 -0.195294,0.3554 -0.622069,0.49766 -0.226571,0.0755 -0.175967,-0.0515 -0.248828,-0.12442 -0.180956,-0.18095 -0.399605,0.019 -0.497655,-0.37324 -0.04578,-0.18311 -0.177194,-1.14611 0.124413,-0.99531 0.538287,0.26914 -0.413084,0.49766 -0.62207,0.49766"
       id="path6" />
    <path
       style="fill:#000000;fill-opacity:0.748755;stroke:none;stroke-width:1;stroke-linecap:round;stroke-linejoin:round;stroke-opacity:1"
       d="m 153.10384,192.12529 c 0.0415,-0.0829 0.20736,-0.20736 0.12442,-0.24883 -0.083,-0.0415 -0.18999,0.3144 -0.12442,0.24883 0.27065,-0.27065 0.32789,-0.53719 0.62207,-0.68428 0.12,-0.06 0.0215,-0.10528 0.0622,-0.18662 0.0747,-0.1493 0.29859,-0.22394 0.37324,-0.37324 0.0484,-0.0969 0.10016,-0.28678 0.18662,-0.37324 0.0147,-0.0147 0.0529,0.0186 0.0622,0 0.0186,-0.0371 -0.0131,-0.0851 0,-0.12442 0.032,-0.0959 0.20238,-0.23391 0.24883,-0.37324 0.0187,-0.056 -0.0187,-0.13063 0,-0.18662 0.009,-0.0278 0.0415,-0.0415 0.0622,-0.0622 0.0208,-0.0415 0.051,-0.0794 0.0622,-0.12441 0.0201,-0.0805 -0.0201,-0.16836 0,-0.24883 0.0688,-0.27538 0.15855,-0.53787 0.24883,-0.80869 0.0641,-0.19227 -0.002,-1.74866 -0.0622,-1.92841 -0.009,-0.0278 -0.0529,-0.0344 -0.0622,-0.0622 -0.0291,-0.0873 0.041,-0.22911 0,-0.31104 -0.0746,-0.14931 -0.0672,-0.32612 -0.12441,-0.49765 -0.0497,-0.14916 0.0382,-0.34476 0,-0.49766 -0.0112,-0.045 -0.0475,-0.0804 -0.0622,-0.12441 -0.0186,-0.056 0.0187,-0.13064 0,-0.18662 -0.009,-0.0278 -0.0529,-0.0344 -0.0622,-0.0622 -0.0262,-0.0787 0.0262,-0.17014 0,-0.24883 -0.0127,-0.038 -0.11176,-0.14866 -0.12442,-0.18662 -0.0131,-0.0393 0.0131,-0.0851 0,-0.12441 -0.0167,-0.0501 -0.3512,-0.60003 -0.37324,-0.62207 -0.0328,-0.0328 -0.0916,-0.0294 -0.12441,-0.0622 -0.0328,-0.0328 -0.0294,-0.0916 -0.0622,-0.12441 -0.0147,-0.0147 -0.0476,0.0147 -0.0622,0 -0.0216,-0.0216 -0.10297,-0.23811 -0.12441,-0.24883 -0.0371,-0.0186 -0.0873,0.0186 -0.12442,0 -0.0415,-0.0207 -0.0207,-0.10368 -0.0622,-0.12441 -0.0377,-0.0188 -0.16056,-0.0361 -0.18662,-0.0622 -0.0147,-0.0147 0.0146,-0.0475 0,-0.0622 -0.0174,-0.0174 -0.21478,-0.11306 -0.24883,-0.12441 -0.0393,-0.0131 -0.0873,0.0186 -0.12442,0 -0.0185,-0.009 0.0147,-0.0476 0,-0.0622 -0.002,-0.002 -0.43884,-0.16702 -0.49765,-0.18662 -0.0393,-0.0131 -0.0951,0.0293 -0.12442,0 -0.0146,-0.0147 0,-0.0415 0,-0.0622 -0.0415,0 -0.0873,0.0186 -0.12441,0 -0.0186,-0.009 0.0186,-0.0529 0,-0.0622 -0.0829,-0.0415 -0.22809,0.0415 -0.31103,0 -0.0494,-0.0247 -0.36293,-0.13473 -0.37324,-0.12442 -0.0147,0.0147 0.0146,0.0475 0,0.0622 -0.0154,0.0153 -0.3579,0.0153 -0.37325,0 -0.11633,-0.11634 0.64236,-0.51795 0.68428,-0.55986 0.0261,-0.0261 0.0434,-0.14892 0.0622,-0.18663 0.0596,-0.11914 0.13304,-0.3024 0,-0.43544 -0.0147,-0.0147 -0.0529,0.0185 -0.0622,0 -0.0186,-0.0371 0.0131,-0.0851 0,-0.12442 -0.0332,-0.0995 -0.21565,-0.14929 -0.24883,-0.24882 -0.0131,-0.0394 0.0131,-0.0851 0,-0.12442 -0.0184,-0.0551 -0.14481,-0.14481 -0.18662,-0.18662 -0.4027,-0.4027 -0.79609,-0.68428 -1.36855,-0.68428 -0.072,0 -0.24584,-0.0326 -0.31104,0 -0.11198,0.056 -0.25884,0.11036 -0.37324,0.18662 -0.14291,0.0953 0.0267,0.0355 -0.12441,0.18663 -0.16151,0.1615 -0.12442,-0.0564 -0.12442,0.18662 0,0.10367 0.0251,0.21045 0,0.31103 -0.0315,0.12589 -0.19052,0.55206 -0.12441,0.68428 0.1389,0.27781 0.57351,0.31786 0.80869,0.43545 0.0262,0.0131 0.0344,0.0529 0.0622,0.0622 0.0393,0.0131 0.0873,-0.0185 0.12441,0 0.0186,0.009 -0.0147,0.0476 0,0.0622 0.0293,0.0293 0.0873,-0.0186 0.12441,0 0.0262,0.0131 0.036,0.0491 0.0622,0.0622 0.0362,0.0181 0.18662,0.0465 0.18662,0.12441 0,0.0207 -0.0437,-0.009 -0.0622,0 -0.30164,0.15082 -0.35297,-0.0723 -0.49766,0 -0.14481,0.0724 -0.1791,0.0182 -0.31103,0.0622 -0.29369,0.0979 -0.56735,0.14764 -0.8709,0.24883 -0.25797,0.086 -0.83396,-0.11179 -1.05752,0 -0.0525,0.0262 -0.072,0.0982 -0.12442,0.12441 -0.0371,0.0185 -0.0873,-0.0186 -0.12441,0 -0.0725,0.0362 -0.11416,0.0882 -0.18662,0.12441 -0.0663,0.0332 -0.0581,-0.0332 -0.12441,0 -0.15399,0.077 -0.30915,0.2017 -0.49766,0.24883 -0.0402,0.0101 -0.0851,-0.0131 -0.12441,0 -0.0136,0.005 -0.37269,0.18607 -0.37325,0.18662 -0.0147,0.0147 0.0185,0.0529 0,0.0622 -0.0371,0.0186 -0.0851,-0.0131 -0.12441,0 -0.14143,0.0471 -0.22119,0.2834 -0.31103,0.37324 -0.0329,0.0329 -0.27818,0.15376 -0.31104,0.18662 -0.0415,0.0415 0.0415,0.0829 0,0.12442 -0.0147,0.0147 -0.0475,-0.0147 -0.0622,0 -0.004,0.004 -0.17186,0.2815 -0.18663,0.31103 -0.0185,0.0371 0.0293,0.0951 0,0.12441 -0.0348,0.0348 -0.0948,0.0357 -0.12441,0.12442 -0.0131,0.0393 0.0185,0.0873 0,0.12441 -0.009,0.0186 -0.0475,-0.0147 -0.0622,0 -0.0328,0.0328 -0.0415,0.083 -0.0622,0.12442 -0.0249,0.0498 0.0249,0.13685 0,0.18662 -0.0362,0.0725 -0.0882,0.11416 -0.12442,0.18662 -0.0196,0.0391 -0.009,0.44442 -0.0622,0.49765 -0.0147,0.0147 -0.0476,-0.0147 -0.0622,0 -0.0497,0.0497 0.0326,0.24578 0,0.31104 -0.0207,0.0415 -0.10368,0.0207 -0.12442,0.0622 -0.0185,0.0371 0.0185,0.0873 0,0.12441 -0.009,0.0186 -0.0475,-0.0147 -0.0622,0 -0.0328,0.0328 -0.0415,0.0829 -0.0622,0.12441 -0.0186,0.0371 0.0186,0.0873 0,0.12442 -0.0262,0.0525 -0.10587,0.0688 -0.12441,0.12441 -0.0605,0.18143 -0.0148,0.37006 -0.0622,0.55987 -0.0683,0.27319 -0.24219,0.53328 -0.31104,0.80868 -0.0201,0.0805 0.0262,0.17015 0,0.24883 -0.009,0.0278 -0.0491,0.036 -0.0622,0.0622 -0.069,0.13794 -0.0586,0.30379 -0.12442,0.43545 -0.0461,0.0921 0.0248,0.2742 0,0.37324 -0.073,0.29198 -0.0968,0.58039 0,0.8709 0.0131,0.0393 -0.0293,0.0951 0,0.12441 0.0147,0.0147 0.0476,-0.0147 0.0622,0 0.0112,0.0112 0.0622,1.21441 0.0622,1.36855 0,0.1293 0.004,0.0665 0.0622,0.12442 0.0293,0.0293 -0.0415,0.12441 0,0.12441 0.10316,0 -0.11866,-0.59906 -0.12441,-0.62207 -0.0201,-0.0805 0.0201,-0.16836 0,-0.24882 -0.0518,-0.20722 -0.18346,-0.36376 -0.24883,-0.55987 -0.046,-0.13786 -0.12698,-0.25397 -0.18662,-0.37324 -0.0262,-0.0525 -0.0982,-0.072 -0.12441,-0.12441 -0.0266,-0.0532 -0.0356,-0.13342 -0.0622,-0.18662 -0.0373,-0.0747 -0.1493,-0.11198 -0.18662,-0.18663 -0.009,-0.0185 0.0147,-0.0475 0,-0.0622 -0.0147,-0.0147 -0.0475,0.0147 -0.0622,0 -0.0147,-0.0147 0.0147,-0.0475 0,-0.0622 -0.0147,-0.0147 -0.0475,0.0147 -0.0622,0 -0.0147,-0.0147 0.0146,-0.0475 0,-0.0622 -0.0147,-0.0146 -0.0476,0.0147 -0.0622,0 -0.0411,-0.0411 -0.0879,-0.19945 -0.18662,-0.24882 -0.0186,-0.009 -0.0476,0.0146 -0.0622,0 -0.0361,-0.0361 -0.0884,-0.21278 -0.12441,-0.24883 -0.0147,-0.0147 -0.0437,0.009 -0.0622,0 -0.25889,-0.12945 0.0665,0.004 -0.0622,-0.12442 -0.0147,-0.0146 -0.0475,0.0147 -0.0622,0 -0.0147,-0.0146 0.0147,-0.0475 0,-0.0622 -0.0147,-0.0147 -0.0476,0.0147 -0.0622,0 -0.0147,-0.0147 0.0147,-0.0476 0,-0.0622 -0.0147,-0.0147 -0.0437,0.009 -0.0622,0 -0.21165,-0.10582 -0.239,-0.12441 -0.49765,-0.12441 -0.29436,0 -0.4541,0.009 -0.68428,0.12441 -0.0371,0.0186 -0.0951,-0.0293 -0.12441,0 -0.0249,0.0249 -0.0337,0.079 -0.12442,0.12441 -0.0371,0.0186 -0.0951,-0.0293 -0.12441,0 -0.0311,0.0311 -0.0311,0.0933 -0.0622,0.12442 -0.0293,0.0293 -0.0951,-0.0293 -0.12441,0 -0.12871,0.12871 0.19668,-0.005 -0.0622,0.12441 -0.0367,0.0184 -0.22819,0.10378 -0.24883,0.12442 -0.0415,0.0415 0.0415,0.0829 0,0.12441 -0.0147,0.0147 -0.0475,-0.0147 -0.0622,0 -0.0269,0.0269 -0.0976,0.20868 -0.12441,0.24883 -0.11251,0.16876 -0.49766,0.50857 -0.49766,0.68427 0,0.14589 0.0147,-0.0293 -0.0622,0.12442 -0.0332,0.0663 0.0332,0.18247 0,0.24883 -0.0309,0.0617 -0.10294,0.12218 -0.12441,0.18662 -0.0197,0.059 0.0278,0.13098 0,0.18662 -0.0529,0.1057 -0.12442,0.37803 -0.12442,0.49765 0,0.21 -0.14424,0.37325 -0.12441,0.37325 0.16633,0 -0.10318,-0.10318 -0.12442,-0.12442 -0.0293,-0.0293 0.0186,-0.0873 0,-0.12441 -0.14234,-0.2847 0.0258,0.26397 -0.12441,-0.18662 -0.0131,-0.0394 0.0293,-0.0951 0,-0.12442 -0.0147,-0.0147 -0.0475,0.0147 -0.0622,0 -0.0293,-0.0293 0.0293,-0.0951 0,-0.12441 -0.0147,-0.0147 -0.0475,0.0147 -0.0622,0 -0.0147,-0.0147 0.0207,-0.0622 0,-0.0622 -0.0293,0 -0.036,0.0491 -0.0622,0.0622 -0.0829,0.0415 -0.22809,-0.0415 -0.31104,0 -0.13281,0.0664 0.008,0.058 -0.12441,0.12441 -0.068,0.034 -0.18463,0.0602 -0.24883,0.12442 -0.0147,0.0147 0.0147,0.0475 0,0.0622 -0.0147,0.0147 -0.0475,-0.0146 -0.0622,0 -0.0147,0.0147 0.0146,0.0476 0,0.0622 -0.0147,0.0147 -0.0476,-0.0147 -0.0622,0 -0.0314,0.0314 0.0622,0.16458 0.0622,0.24883 0,0.1765 -0.11273,0.70766 -0.0622,0.80869 0.12944,0.25889 -0.004,-0.0665 0.12441,0.0622 0.0293,0.0293 -0.0293,0.0951 0,0.12441 0.0424,0.0424 0.23633,0.0497 0.24883,0.0622 0.0147,0.0147 -0.0147,0.0475 0,0.0622 0.0644,0.0644 0.20974,-0.0427 0.24883,-0.0622 0.0498,-0.0249 0.13685,0.0249 0.18662,0 0.0379,-0.019 0.16607,-0.0833 0.18662,-0.12442 0.009,-0.0185 -0.0147,-0.0475 0,-0.0622 0.0147,-0.0147 0.0475,0.0147 0.0622,0 0.039,-0.039 -0.003,-0.1219 0.0622,-0.18662 0.0579,-0.0579 0.12442,-0.16714 0.12442,-0.24883 0,-0.0207 0,-0.0829 0,-0.0622 0,0.44765 0.057,0.86043 0.24883,1.24414 0.0185,0.0371 -0.0186,0.0873 0,0.12441 0.0262,0.0525 0.0982,0.072 0.12441,0.12442 0.0185,0.0371 -0.0293,0.0951 0,0.12441 0.0147,0.0147 0.0475,-0.0147 0.0622,0 0.0247,0.0247 0.1441,0.33072 0.18663,0.37324 0.12871,0.12871 -0.005,-0.19668 0.12441,0.0622 0.009,0.0186 -0.0147,0.0476 0,0.0622 0.0293,0.0293 0.0873,-0.0186 0.12441,0 0.0334,0.0167 0.35578,0.243 0.37325,0.24882 0.0597,0.0199 0.18912,-0.0298 0.24882,0 0.23248,0.11624 0.7638,0.11576 0.99532,0 0.16669,-0.0833 0.44321,0.0596 0.62207,0 0.13457,-0.0448 0.2584,-0.067 0.37324,-0.12441 0.0491,-0.0246 0.13415,0.0175 0.18662,0 0.038,-0.0127 0.14865,-0.11176 0.18662,-0.12441 0.0393,-0.0131 0.0851,0.0131 0.12441,0 0.0556,-0.0186 0.072,-0.0982 0.12442,-0.12442 0.0371,-0.0185 0.0873,0.0186 0.12441,0 0.0657,-0.0328 0.12572,-0.094 0.18662,-0.12441 0.0984,-0.0492 0.36521,-0.51671 0.43545,-0.62207 0.0839,-0.12585 0.45238,-0.97838 0.31104,-1.11973 -0.0147,-0.0147 -0.0476,0.0147 -0.0622,0 -0.0293,-0.0293 0.0293,-0.0951 0,-0.12441 -0.0147,-0.0147 -0.0476,0.0147 -0.0622,0 -0.0147,-0.0147 0,-0.0829 0,-0.0622 0,0.17128 -0.0223,0.21376 -0.0622,0.37325 -0.0781,0.31225 0.0781,0.68305 0,0.99531 -0.0434,0.17353 -0.0622,0.24166 -0.0622,0.43545 0,0.47277 -0.0847,1.0521 0.0622,1.49296 0.0497,0.14915 0.002,0.31766 0.0622,0.49766 0.0214,0.0643 0.0479,0.3589 0.0622,0.37324 0.0147,0.0147 0.0475,-0.0147 0.0622,0 0.0261,0.0261 0.0433,0.14892 0.0622,0.18662 0.12945,0.25889 -0.004,-0.0665 0.12442,0.0622 0.0147,0.0147 -0.0147,0.0475 0,0.0622 0.0147,0.0147 0.0437,-0.009 0.0622,0 0.27049,0.13525 0.43172,0.51591 0.68428,0.68428 0.10309,0.0687 0.20814,0.14593 0.31104,0.24883 0.10732,0.10733 0.23857,0.18149 0.37324,0.24883 0.0185,0.009 0.0475,-0.0147 0.0622,0 0.083,0.0829 -0.13196,0.0597 0.0622,0.12441 0.0393,0.0131 0.0842,-0.0101 0.12442,0 0.14671,0.0367 0.28873,0.14994 0.43544,0.18662 0.0402,0.0101 0.0873,-0.0186 0.12442,0 0.0185,0.009 -0.0147,0.0476 0,0.0622 0.0351,0.0351 0.19911,-0.0166 0.24882,0 0.14036,0.0468 0.25351,0.0645 0.37325,0.12441 0.0663,0.0332 0.18247,-0.0332 0.24882,0 0.0925,0.0462 0.19801,0.10181 0.31104,0.12442 0.0917,0.0183 0.27822,-0.0317 0.37324,0 0.0278,0.009 0.036,0.0491 0.0622,0.0622 0.0344,0.0172 0.22134,0.053 0.24883,0.0622 0.0497,0.0166 0.21373,-0.0351 0.24882,0 0.0147,0.0147 -0.0185,0.0529 0,0.0622 0.0228,0.0114 0.22266,-0.0262 0.24883,0 0.11297,0.11297 -0.11756,0.12213 -0.12441,0.12441 -0.0556,0.0185 -0.072,0.0982 -0.12442,0.12442 -0.13107,0.0655 -0.25516,0.2302 -0.49765,0.31103 -0.11893,0.0396 -0.40299,0.092 -0.49766,0.18662 -0.0147,0.0147 0.0147,0.0476 0,0.0622 -0.0293,0.0293 -0.0951,-0.0293 -0.12441,0 -0.0415,0.0415 0.0415,0.0829 0,0.12441 -0.0147,0.0147 -0.0476,-0.0147 -0.0622,0 -0.0334,0.0334 -0.15101,0.7911 -0.12441,0.8709 0.10208,0.30623 0.35486,0.60828 0.62207,0.80869 0.0371,0.0278 0.0916,0.0294 0.12441,0.0622 0.0328,0.0328 0.0294,0.0916 0.0622,0.12441 0.0147,0.0147 0.0437,-0.009 0.0622,0 0.0787,0.0394 0.11119,0.14136 0.18663,0.18662 0.11245,0.0675 0.2527,0.0728 0.37324,0.12442 0.37872,0.16231 0.75392,0.38237 1.18193,0.31103 0.40193,-0.067 0.72573,-0.3317 0.80869,-0.74648 0.0244,-0.122 -0.0244,-0.25125 0,-0.37325 0.009,-0.0455 0.051,-0.0794 0.0622,-0.12441 0.0466,-0.1864 -0.0428,-0.64543 -0.12442,-0.80869 -0.0131,-0.0262 -0.0529,-0.0344 -0.0622,-0.0622 -0.0131,-0.0393 0.0185,-0.0873 0,-0.12441 -0.009,-0.0186 -0.0476,0.0147 -0.0622,0 -0.0147,-0.0147 0.009,-0.0437 0,-0.0622 -0.0436,-0.0871 -0.17936,-0.17936 -0.24883,-0.24882 -0.0669,-0.0669 -0.19613,-0.0717 -0.24883,-0.12442 -0.0147,-0.0147 0.0147,-0.0475 0,-0.0622 -0.0293,-0.0293 -0.0873,0.0185 -0.12441,0 -0.0525,-0.0262 -0.072,-0.0982 -0.12441,-0.12442 -0.0371,-0.0185 -0.0951,0.0293 -0.12442,0 -0.0293,-0.0293 -0.0293,-0.0951 0,-0.12441 0.10214,-0.10214 0.49128,-0.0917 0.62207,-0.12442 0.10846,-0.0271 0.20257,-0.0973 0.31104,-0.12441 0.12069,-0.0302 0.25007,0.0176 0.37324,0 0.70548,-0.10078 1.35907,-0.48332 2.05283,-0.62207 0.20066,-0.0401 0.43159,-0.0609 0.62207,-0.12441 0.0974,-0.0325 0.19649,-0.0958 0.31103,-0.12442 0.0805,-0.0201 0.1675,0.0163 0.24883,0 0.27501,-0.055 0.5685,-0.21311 0.80869,-0.37324 0.10293,-0.0686 0.43597,-0.28072 0.49766,-0.37324 0.0257,-0.0386 0.0294,-0.0916 0.0622,-0.12442 0.0328,-0.0328 0.0858,-0.0365 0.12442,-0.0622 0.24293,-0.16195 0.50154,-0.44323 0.62207,-0.68428 0.0262,-0.0525 0.0982,-0.072 0.12441,-0.12441 0.0186,-0.0371 -0.0186,-0.0873 0,-0.12442 0.22084,-0.44167 -0.0641,-1.31009 -0.24883,-1.67958 -0.0278,-0.0556 0.0197,-0.12761 0,-0.18663 -0.0185,-0.0556 -0.10586,-0.0688 -0.12441,-0.12441 -0.0197,-0.059 0.0278,-0.13098 0,-0.18662 -0.0423,-0.0845 -0.14435,-0.16428 -0.18662,-0.24883 -0.0266,-0.0532 -0.0356,-0.13342 -0.0622,-0.18662 -0.0584,-0.11674 -0.20024,-0.0895 -0.24883,-0.18662 -0.009,-0.0186 0.0147,-0.0475 0,-0.0622 -0.0146,-0.0147 -0.0475,0.0147 -0.0622,0 -0.0328,-0.0328 -0.0294,-0.0916 -0.0622,-0.12441 -0.0908,-0.0908 -0.65963,-0.29871 -0.80869,-0.37324 -0.11612,-0.0581 -0.31933,0.0581 -0.43545,0 -0.0186,-0.009 0.0186,-0.0529 0,-0.0622 -0.12343,-0.0617 -0.57535,-0.0155 -0.62207,-0.0622 -0.0147,-0.0147 0,-0.0415 0,-0.0622 -0.14515,-0.0207 -0.2903,-0.0415 -0.43545,-0.0622 z"
       id="path7" />
    <circle
       style="fill:#ffffff;fill-opacity:1;stroke:none;stroke-width:1;stroke-linecap:round;stroke-linejoin:round;stroke-opacity:1"
       id="path8"
       cx="154.33548"
       cy="191.53526"
       r="0.87089753" />
    <path
       style="fill:none;fill-opacity:1;stroke:#000000;stroke-width:1;stroke-linecap:round;stroke-linejoin:round;stroke-opacity:1"
       d="m 132.43863,122.67213 c 0.0415,-0.0829 0.20735,-0.20735 0.12441,-0.24883 -0.0829,-0.0415 -0.18998,0.31441 -0.12441,0.24883 0.14662,-0.14662 0.24593,-0.33397 0.37324,-0.49765 0.22731,-0.29226 0.56301,0.24725 0.80869,0.12441 0.14041,-0.0702 0.2383,-0.0794 0.37324,-0.12441 0.0278,-0.009 0.0329,-0.0622 0.0622,-0.0622 0.0207,0 -0.009,0.0437 0,0.0622 0.0907,0.18141 0.34495,0.38267 0.55986,0.31103 0.10793,-0.036 0.76918,-0.35055 0.8709,-0.24882 0.0477,0.0478 0.0357,0.19583 0.0622,0.24882 0.0185,0.0369 0.23813,0.28529 0.31104,0.24883 0.14876,-0.0744 0.23055,-0.28762 0.37324,-0.37324 0.0571,-0.0343 0.55343,-0.25527 0.62207,-0.18662 0.0293,0.0293 -0.0185,0.0873 0,0.12441 0.0532,0.10644 0.43045,0.25133 0.55986,0.18662 0.10492,-0.0525 0.15724,-0.17555 0.24883,-0.24882 0.19649,-0.15719 0.63797,-0.52081 0.93311,-0.37325 0.12044,0.0602 0.0988,0.81724 0.31103,0.74649 0.37932,-0.12644 1.04777,-1.24902 1.55518,-0.99531 0.28377,0.14188 -0.0723,0.73201 0.62207,0.87089 0.33383,0.0668 0.55851,-0.21688 0.80868,-0.37324 0.16848,-0.1053 0.42812,-0.21004 0.62207,-0.24883 0.21677,-0.0434 0.52511,0.17931 0.62207,0.37325 0.0471,0.0942 -0.003,0.21622 0.18663,0.31103 0.3212,0.1606 1.68188,-0.46713 2.05283,-0.55986 0.10268,-0.0257 0.48969,-0.1284 0.62207,-0.0622 0.0185,0.009 -0.009,0.0437 0,0.0622 0.0927,0.18537 0.28743,0.31103 0.49765,0.31103 0.45743,0 1.21609,-0.46757 1.67959,-0.62207 0.19387,-0.0646 0.78886,0.10008 0.9331,0.18662 0.19103,0.11462 0.23479,0.19626 0.49766,0.24883 0.32951,0.0659 0.45485,-0.1655 0.74648,-0.24883 0.0598,-0.0171 0.12442,0 0.18662,0 0.65397,0 0.038,0.10827 0.43545,0.37325 0.0479,0.0319 0.46853,0.007 0.49766,0 0.09,-0.0225 0.162,-0.0919 0.24883,-0.12442 0.29564,-0.11087 0.68312,-0.16344 0.99531,-0.12441 0.36046,0.0451 0.0319,0.36717 0.37324,0.43544 0.39207,0.0784 1.1872,0 1.61738,0 0.49678,0 0.98426,0.1258 1.49297,0.0622 0.19173,-0.024 0.43702,-0.0782 0.62207,-0.12441 0.045,-0.0112 0.078,-0.0622 0.12441,-0.0622 0.13913,0 0.15173,0.10772 0.31104,0.0622 0.49779,-0.14223 0.9975,-0.34119 1.49296,-0.49766 0.0769,-0.0243 0.93003,-0.37324 1.05752,-0.37324 0.0207,0 -0.0147,0.0476 0,0.0622 0.0293,0.0293 0.0838,-0.008 0.12442,0 0.0838,0.0168 0.17235,0.024 0.24882,0.0622 0.18547,0.0927 0.32513,0.25822 0.49766,0.37324 0.0402,0.0268 0.22189,0.0975 0.24883,0.12441 0.0147,0.0147 -0.0147,0.0476 0,0.0622 0.0686,0.0686 0.42907,-0.006 0.49765,0.0622 0.0359,0.0359 0.0872,0.18661 0.18662,0.18661"
       id="path9" />
    <path
       style="fill:none;fill-opacity:1;stroke:#000000;stroke-width:1;stroke-linecap:round;stroke-linejoin:round;stroke-opacity:1"
       d="m 132.68746,126.77779 c 0.46315,-0.53486 1.07789,-0.80562 1.74179,-0.99531 0.0631,-0.018 0.12301,-0.0781 0.18662,-0.0622 0.0443,0.0111 0.24788,0.49652 0.24883,0.49766 0.15992,0.1919 0.56746,0.325 0.80869,0.37324 0.35136,0.0703 0.94694,-0.19748 1.30635,-0.24883 0.39958,-0.0571 0.30485,0.26751 0.62206,0.37325 0.34974,0.11658 0.78003,-0.0905 1.11973,-0.12442 0.4704,-0.047 1.08802,-0.10467 1.55518,-0.0622 0.0391,0.004 0.35566,0.0446 0.43544,0.12441 0.0416,0.0416 0.004,0.23274 0.0622,0.31103 0.14772,0.19696 0.50633,0.32888 0.74648,0.24883 0.55316,-0.18438 0.96062,-0.62757 1.55518,-0.74648 0.14233,-0.0285 0.29463,-0.0352 0.43545,0 0.0569,0.0142 0.0719,0.0982 0.12441,0.12441 0.0186,0.009 0.0475,-0.0147 0.0622,0 0.0328,0.0328 0.0236,0.0987 0.0622,0.12442 0.0863,0.0575 0.20736,0 0.31104,0 0.3466,0 0.60157,-0.0872 0.9331,-0.18662 0.50853,-0.15256 1.08985,-0.26308 1.61739,-0.31104 0.14455,-0.0131 0.30562,-0.0649 0.43544,0 0.0371,0.0186 -0.0293,0.0951 0,0.12441 0.0195,0.0195 0.40171,0.01 0.43545,0 0.0719,-0.0205 0.1179,-0.095 0.18662,-0.12441 0.1949,-0.0835 0.65522,-0.21069 0.8709,-0.12441 0.23722,0.0949 0.26467,0.44111 0.37324,0.62207 0.0833,0.13887 0.19652,0.25872 0.31104,0.37324 0.35017,0.35017 1.52699,0.12441 2.05283,0.12441"
       id="path10" />
    <path
       style="fill:none;fill-opacity:1;stroke:#000000;stroke-width:1;stroke-linecap:round;stroke-linejoin:round;stroke-opacity:1"
       d="m 133.1229,131.62994 c 0.4178,-0.37008 0.83618,-0.67878 1.43076,-0.55987 0.55828,0.11166 0.88956,1.13395 1.49297,1.30635 0.41348,0.11814 1.23302,-0.37754 1.61738,-0.49766 0.52217,-0.16317 1.1965,-0.24882 1.7418,-0.24882 0.13109,0 0.91013,0.0507 1.05752,0.12441 0.1226,0.0613 0.15405,0.2264 0.31103,0.24883 0.24215,0.0346 0.67281,-0.0512 0.8709,-0.0622 1.37013,-0.0761 -0.30166,0.12285 1.18193,-0.12441 0.33666,-0.0561 0.66674,-0.0697 0.99531,-0.12442 0.17355,-0.0289 0.27873,0.10139 0.43545,0.0622 0.31248,-0.0781 0.62176,-0.24876 0.9331,-0.31103 0.10167,-0.0203 0.20787,0.0103 0.31104,0 0.10521,-0.0105 0.2053,-0.0622 0.31103,-0.0622 0.0855,0 0.16386,0.0528 0.24883,0.0622 0.20712,0.023 0.41496,0.0392 0.62207,0.0622 0.21459,0.0238 0.35635,-0.0622 0.55987,-0.0622 0.12353,0 0.0964,0.0876 0.24882,0.0622 0.86507,-0.14417 1.64705,-0.57294 2.55049,-0.49765 0.51052,0.0425 0.49188,0.084 0.55986,0.55986 0.009,0.0616 -0.0197,0.12761 0,0.18662 0.11904,0.35711 0.69097,0.76287 1.05752,0.80869 0.80254,0.10032 2.21714,-0.13669 2.98593,-0.37324 0.26924,-0.0828 0.4724,-0.20315 0.74649,-0.24883 0.10227,-0.017 0.22477,-0.0575 0.31103,0 0.0386,0.0257 0.0365,0.0858 0.0622,0.12442 0.13442,0.20163 0.47041,0.28173 0.68427,0.24882 0.66497,-0.1023 1.43603,-0.28573 2.05284,-0.55986 0.35238,-0.15662 0.62598,-0.37454 0.99531,-0.49766"
       id="path11" />
    <path
       style="fill:none;fill-opacity:1;stroke:#ffffff;stroke-width:1;stroke-linecap:round;stroke-linejoin:round;stroke-opacity:1"
       d="m 17.355743,214.80065 c 0.08294,-0.0415 0.290299,-0.0415 0.248828,-0.12442 -0.04147,-0.0829 -0.32124,0.18235 -0.248828,0.12442 0.175142,-0.14011 0.382085,-0.23649 0.559863,-0.37324 0.644773,-0.49598 -0.208983,-0.0199 0.622069,-0.43545 0.09539,-0.0477 1.165859,-0.5679 1.181933,-0.55987 0.03709,0.0186 -0.0068,0.0835 0,0.12442 0.01405,0.0843 0.03517,0.16772 0.06221,0.24883 0.213769,0.6413 0.01883,-0.0208 0.311034,0.62207 0.12186,0.26809 0.144744,0.55148 0.497656,0.62207 0.560252,0.11205 1.115757,-0.63122 1.555174,-0.8709 0.274713,-0.14985 0.735963,-0.35601 1.057519,-0.24883 0.0587,0.0195 0.200867,0.41153 0.622069,0.37324 0.150338,-0.0137 0.288086,-0.0917 0.435449,-0.12441 0.226311,-0.0503 0.458749,-0.0707 0.684277,-0.12442 0.421199,-0.10028 0.824093,-0.26823 1.244139,-0.37324 0.172338,-0.0431 1.081797,-0.23668 1.306346,-0.12441 0.143196,0.0716 -0.02712,0.073 0.124413,0.18662 0.3512,0.2634 1.151572,0.22192 1.555176,0.24883 0.523917,0.0349 1.035529,0.19686 1.555173,0.24882 0.103164,0.0103 0.207872,-0.0103 0.311036,0 0.105206,0.0105 0.205304,0.0622 0.311034,0.0622 0.211463,0 0.411337,-0.10685 0.622069,-0.12441 0.269426,-0.0225 0.539018,-0.043 0.808692,-0.0622 0.199858,-0.0143 1.297617,0.0535 1.43076,0.18662 0.01466,0.0147 0,0.0415 0,0.0622 0.04147,0.0622 0.06698,0.13876 0.124413,0.18662 0.285969,0.23831 0.84455,0.21875 1.181933,0.18662 1.202515,-0.11453 2.357178,-0.50141 3.545798,-0.68428 0.452739,-0.0696 0.9115,-0.0939 1.368552,-0.12441 0.581162,-0.0387 0.413591,-0.003 0.559863,0.43545 0.02074,0.0622 0.02125,0.13542 0.06221,0.18662 0.237365,0.29671 0.791048,0.36621 1.119724,0.24883 0.174662,-0.0624 0.329592,-0.1704 0.497658,-0.24883 0.625456,-0.29188 1.23345,-0.55889 1.928415,-0.62207 0.123902,-0.0113 0.269722,-0.069 0.37324,0 0.130974,0.0873 0.136115,0.38494 0.24883,0.49766 0.144701,0.1447 0.739246,0.54612 0.933103,0.49765 0.324993,-0.0813 0.62207,-0.24883 0.933104,-0.37324 0.624408,-0.24976 1.223592,-0.54567 1.866209,-0.74648 0.06602,-0.0206 0.693444,-0.20784 0.746485,-0.18663 0.05776,0.0231 -0.01024,0.12527 0,0.18663 0.0505,0.30298 0.179118,0.4658 0.497655,0.49765 0.504692,0.0505 0.938972,-0.0425 1.430761,-0.12441 0.781481,-0.13025 1.5783,-0.17443 2.363864,-0.0622 0.558197,0.0798 0.32953,0.22235 0.684276,0.31104 0.724522,0.18113 1.477891,0.49765 2.239452,0.49765 0.62358,0 0.970116,-0.0733 1.555173,-0.24883 0.107286,-0.0322 0.362508,-0.13514 0.373242,-0.12441 0.03904,0.039 -0.01273,0.33503 0,0.37324 0.132175,0.39653 0.727954,0.46627 1.057519,0.49766 0.247708,0.0236 0.497654,0 0.746484,0 1.1244,0 2.248564,-0.0505 3.359174,-0.24883 0.504984,-0.0902 0.996887,-0.24269 1.492967,-0.37324 0.166817,-0.0439 0.59263,-0.21607 0.684279,-0.12442 0.0311,0.0311 -0.02487,0.1493 0,0.18662 0.02037,0.0306 0.410482,0.30105 0.435448,0.31104 0.268441,0.10738 1.049907,-0.19423 1.057519,-0.18662 0.01466,0.0147 -0.01466,0.0475 0,0.0622 0.01466,0.0147 0.04147,0 0.06221,0 0.02074,0.0207 0.04147,0.0415 0.06221,0.0622"
       id="path12" />
  </g>
</svg>
